<?xml version="1.0" standalone="no"?>
<!DOCTYPE svg PUBLIC "-//W3C//DTD SVG 20010904//EN"
 "http://www.w3.org/TR/2001/REC-SVG-20010904/DTD/svg10.dtd">
<svg version="1.0" xmlns="http://www.w3.org/2000/svg"
 width="128.000000pt" height="128.000000pt" viewBox="0 0 128.000000 128.000000"
 preserveAspectRatio="xMidYMid meet">
<metadata>
Created by potrace 1.14, written by Peter Selinger 2001-2017
</metadata>
<g transform="translate(0.000000,128.000000) scale(0.100000,-0.100000)"
fill="#000000" stroke="none">
<path d="M534 1089 c-45 -9 -115 -31 -156 -48 l-74 -31 -37 -95 c-21 -53 -35
-100 -31 -106 6 -10 55 -6 91 8 13 5 14 -3 9 -53 -3 -32 -8 -90 -11 -129 -3
-38 -8 -90 -10 -115 -3 -25 -7 -74 -10 -110 -2 -36 -7 -95 -10 -131 -4 -37 -2
-69 3 -72 5 -4 24 -9 43 -12 19 -4 68 -13 109 -20 243 -44 467 43 561 218 28
52 33 73 33 127 1 76 -14 104 -81 155 l-44 33 32 23 c46 33 89 105 89 151 0
79 -43 144 -120 183 -96 48 -235 57 -386 24z m236 -206 c10 -10 21 -34 24 -54
8 -44 -17 -80 -73 -109 -55 -27 -121 -135 -89 -144 7 -2 38 -9 68 -15 70 -15
99 -37 105 -81 3 -29 -1 -39 -35 -72 -42 -39 -81 -54 -169 -65 l-53 -6 6 99
c9 145 31 371 41 419 2 11 4 23 4 27 2 12 76 27 115 23 21 -2 47 -12 56 -22z"/>
</g>
</svg>
